<svg width="800" height="600" viewBox="0 0 800 600" fill="none" xmlns="http://www.w3.org/2000/svg">
  <!-- Background -->
  <rect width="800" height="600" fill="url(#gradient-bg)"/>
  
  <!-- Header Bar -->
  <rect x="0" y="0" width="800" height="80" fill="url(#gradient-header)" rx="0"/>
  
  <!-- Logo Area -->
  <circle cx="60" cy="40" r="25" fill="url(#gradient-logo)"/>
  <text x="60" y="48" text-anchor="middle" fill="white" font-family="Arial, sans-serif" font-size="16" font-weight="bold">WB</text>
  
  <!-- Navigation Tabs -->
  <g transform="translate(120, 25)">
    <rect x="0" y="0" width="80" height="30" rx="15" fill="url(#gradient-active)"/>
    <text x="40" y="20" text-anchor="middle" fill="white" font-family="Arial, sans-serif" font-size="12" font-weight="600">Servers</text>
    
    <rect x="90" y="0" width="70" height="30" rx="15" fill="white" opacity="0.1"/>
    <text x="125" y="20" text-anchor="middle" fill="white" font-family="Arial, sans-serif" font-size="12">Analytics</text>
    
    <rect x="170" y="0" width="80" height="30" rx="15" fill="white" opacity="0.1"/>
    <text x="210" y="20" text-anchor="middle" fill="white" font-family="Arial, sans-serif" font-size="12">Templates</text>
    
    <rect x="260" y="0" width="90" height="30" rx="15" fill="white" opacity="0.1"/>
    <text x="305" y="20" text-anchor="middle" fill="white" font-family="Arial, sans-serif" font-size="12">Marketplace</text>
  </g>
  
  <!-- Notification Bell -->
  <circle cx="700" cy="40" r="20" fill="url(#gradient-notification)"/>
  <path d="M690 30 L710 30 L710 50 L690 50 Z M695 35 L705 35 L705 45 L695 45 Z" fill="white"/>
  <circle cx="715" cy="25" r="8" fill="#ef4444"/>
  
  <!-- Main Content Area -->
  <rect x="40" y="120" width="720" height="460" rx="20" fill="white" opacity="0.95" stroke="url(#gradient-border)" stroke-width="2"/>
  
  <!-- Server Cards -->
  <g transform="translate(80, 160)">
    <!-- Server 1 -->
    <rect x="0" y="0" width="200" height="120" rx="15" fill="url(#gradient-card1)" stroke="url(#gradient-stroke)" stroke-width="1"/>
    <circle cx="30" cy="30" r="15" fill="url(#gradient-green)"/>
    <text x="30" y="36" text-anchor="middle" fill="white" font-family="Arial, sans-serif" font-size="12" font-weight="bold">✓</text>
    <text x="60" y="35" fill="#1f2937" font-family="Arial, sans-serif" font-size="14" font-weight="600">ChatBot Pro</text>
    <text x="60" y="55" fill="#6b7280" font-family="Arial, sans-serif" font-size="12">Status: Active</text>
    <text x="60" y="75" fill="#6b7280" font-family="Arial, sans-serif" font-size="12">Uptime: 99.9%</text>
    <text x="60" y="95" fill="#6b7280" font-family="Arial, sans-serif" font-size="12">Messages: 1.2K</text>
    
    <!-- Server 2 -->
    <rect x="220" y="0" width="200" height="120" rx="15" fill="url(#gradient-card2)" stroke="url(#gradient-stroke)" stroke-width="1"/>
    <circle cx="250" cy="30" r="15" fill="url(#gradient-blue)"/>
    <text x="250" y="36" text-anchor="middle" fill="white" font-family="Arial, sans-serif" font-size="12" font-weight="bold">⚡</text>
    <text x="280" y="35" fill="#1f2937" font-family="Arial, sans-serif" font-size="14" font-weight="600">Support Bot</text>
    <text x="280" y="55" fill="#6b7280" font-family="Arial, sans-serif" font-size="12">Status: Deploying</text>
    <text x="280" y="75" fill="#6b7280" font-family="Arial, sans-serif" font-size="12">Progress: 75%</text>
    <text x="280" y="95" fill="#6b7280" font-family="Arial, sans-serif" font-size="12">ETA: 2 min</text>
    
    <!-- Server 3 -->
    <rect x="440" y="0" width="200" height="120" rx="15" fill="url(#gradient-card3)" stroke="url(#gradient-stroke)" stroke-width="1"/>
    <circle cx="470" cy="30" r="15" fill="url(#gradient-orange)"/>
    <text x="470" y="36" text-anchor="middle" fill="white" font-family="Arial, sans-serif" font-size="12" font-weight="bold">⏸️</text>
    <text x="500" y="35" fill="#1f2937" font-family="Arial, sans-serif" font-size="14" font-weight="600">E-commerce Bot</text>
    <text x="500" y="55" fill="#6b7280" font-family="Arial, sans-serif" font-size="12">Status: Paused</text>
    <text x="500" y="75" fill="#6b7280" font-family="Arial, sans-serif" font-size="12">Last Active: 2h ago</text>
    <text x="500" y="95" fill="#6b7280" font-family="Arial, sans-serif" font-size="12">Orders: 45</text>
  </g>
  
  <!-- Analytics Section -->
  <g transform="translate(80, 320)">
    <text x="0" y="0" fill="#1f2937" font-family="Arial, sans-serif" font-size="18" font-weight="600">Performance Analytics</text>
    
    <!-- Chart Container -->
    <rect x="0" y="20" width="640" height="120" rx="10" fill="url(#gradient-chart)" opacity="0.1"/>
    
    <!-- Chart Lines -->
    <path d="M20 140 L120 120 L220 110 L320 90 L420 100 L520 80 L620 70" stroke="url(#gradient-line1)" stroke-width="3" fill="none"/>
    <path d="M20 130 L120 115 L220 105 L320 95 L420 105 L520 85 L620 75" stroke="url(#gradient-line2)" stroke-width="3" fill="none"/>
    
    <!-- Chart Points -->
    <circle cx="20" cy="140" r="4" fill="url(#gradient-line1)"/>
    <circle cx="120" cy="120" r="4" fill="url(#gradient-line1)"/>
    <circle cx="220" cy="110" r="4" fill="url(#gradient-line1)"/>
    <circle cx="320" cy="90" r="4" fill="url(#gradient-line1)"/>
    <circle cx="420" cy="100" r="4" fill="url(#gradient-line1)"/>
    <circle cx="520" cy="80" r="4" fill="url(#gradient-line1)"/>
    <circle cx="620" cy="70" r="4" fill="url(#gradient-line1)"/>
    
    <!-- Y-axis Labels -->
    <text x="650" y="25" fill="#6b7280" font-family="Arial, sans-serif" font-size="10">100%</text>
    <text x="650" y="55" fill="#6b7280" font-family="Arial, sans-serif" font-size="10">75%</text>
    <text x="650" y="85" fill="#6b7280" font-family="Arial, sans-serif" font-size="10">50%</text>
    <text x="650" y="115" fill="#6b7280" font-family="Arial, sans-serif" font-size="10">25%</text>
    <text x="650" y="145" fill="#6b7280" font-family="Arial, sans-serif" font-size="10">0%</text>
  </g>
  
  <!-- Quick Actions -->
  <g transform="translate(80, 480)">
    <text x="0" y="0" fill="#1f2937" font-family="Arial, sans-serif" font-size="18" font-weight="600">Quick Actions</text>
    
    <!-- Action Buttons -->
    <rect x="0" y="20" width="120" height="40" rx="20" fill="url(#gradient-primary)"/>
    <text x="60" y="45" text-anchor="middle" fill="white" font-family="Arial, sans-serif" font-size="12" font-weight="600">Create Server</text>
    
    <rect x="140" y="20" width="120" height="40" rx="20" fill="url(#gradient-secondary)"/>
    <text x="200" y="45" text-anchor="middle" fill="white" font-family="Arial, sans-serif" font-size="12" font-weight="600">Upload Bot</text>
    
    <rect x="280" y="20" width="120" height="40" rx="20" fill="url(#gradient-success)"/>
    <text x="340" y="45" text-anchor="middle" fill="white" font-family="Arial, sans-serif" font-size="12" font-weight="600">View Logs</text>
    
    <rect x="420" y="20" width="120" height="40" rx="20" fill="url(#gradient-warning)"/>
    <text x="480" y="45" text-anchor="middle" fill="white" font-family="Arial, sans-serif" font-size="12" font-weight="600">Settings</text>
  </g>
  
  <!-- Floating Elements -->
  <circle cx="750" cy="150" r="30" fill="url(#gradient-accent)" opacity="0.1"/>
  <circle cx="50" cy="400" r="25" fill="url(#gradient-accent)" opacity="0.1"/>
  
  <!-- Gradients -->
  <defs>
    <linearGradient id="gradient-bg" x1="0%" y1="0%" x2="100%" y2="100%">
      <stop offset="0%" style="stop-color:#f8fafc;stop-opacity:1" />
      <stop offset="100%" style="stop-color:#e2e8f0;stop-opacity:1" />
    </linearGradient>
    
    <linearGradient id="gradient-header" x1="0%" y1="0%" x2="100%" y2="100%">
      <stop offset="0%" style="stop-color:#1e293b;stop-opacity:1" />
      <stop offset="100%" style="stop-color:#0f172a;stop-opacity:1" />
    </linearGradient>
    
    <linearGradient id="gradient-logo" x1="0%" y1="0%" x2="100%" y2="100%">
      <stop offset="0%" style="stop-color:#10b981;stop-opacity:1" />
      <stop offset="100%" style="stop-color:#059669;stop-opacity:1" />
    </linearGradient>
    
    <linearGradient id="gradient-active" x1="0%" y1="0%" x2="100%" y2="100%">
      <stop offset="0%" style="stop-color:#3b82f6;stop-opacity:1" />
      <stop offset="100%" style="stop-color:#1d4ed8;stop-opacity:1" />
    </linearGradient>
    
    <linearGradient id="gradient-notification" x1="0%" y1="0%" x2="100%" y2="100%">
      <stop offset="0%" style="stop-color:#8b5cf6;stop-opacity:1" />
      <stop offset="100%" style="stop-color:#7c3aed;stop-opacity:1" />
    </linearGradient>
    
    <linearGradient id="gradient-card1" x1="0%" y1="0%" x2="100%" y2="100%">
      <stop offset="0%" style="stop-color:#ffffff;stop-opacity:1" />
      <stop offset="100%" style="stop-color:#f8fafc;stop-opacity:1" />
    </linearGradient>
    
    <linearGradient id="gradient-card2" x1="0%" y1="0%" x2="100%" y2="100%">
      <stop offset="0%" style="stop-color:#ffffff;stop-opacity:1" />
      <stop offset="100%" style="stop-color:#f0f9ff;stop-opacity:1" />
    </linearGradient>
    
    <linearGradient id="gradient-card3" x1="0%" y1="0%" x2="100%" y2="100%">
      <stop offset="0%" style="stop-color:#ffffff;stop-opacity:1" />
      <stop offset="100%" style="stop-color:#fffbeb;stop-opacity:1" />
    </linearGradient>
    
    <linearGradient id="gradient-green" x1="0%" y1="0%" x2="100%" y2="100%">
      <stop offset="0%" style="stop-color:#10b981;stop-opacity:1" />
      <stop offset="100%" style="stop-color:#059669;stop-opacity:1" />
    </linearGradient>
    
    <linearGradient id="gradient-blue" x1="0%" y1="0%" x2="100%" y2="100%">
      <stop offset="0%" style="stop-color:#3b82f6;stop-opacity:1" />
      <stop offset="100%" style="stop-color:#1d4ed8;stop-opacity:1" />
    </linearGradient>
    
    <linearGradient id="gradient-orange" x1="0%" y1="0%" x2="100%" y2="100%">
      <stop offset="0%" style="stop-color:#f59e0b;stop-opacity:1" />
      <stop offset="100%" style="stop-color:#d97706;stop-opacity:1" />
    </linearGradient>
    
    <linearGradient id="gradient-primary" x1="0%" y1="0%" x2="100%" y2="100%">
      <stop offset="0%" style="stop-color:#3b82f6;stop-opacity:1" />
      <stop offset="100%" style="stop-color:#1d4ed8;stop-opacity:1" />
    </linearGradient>
    
    <linearGradient id="gradient-secondary" x1="0%" y1="0%" x2="100%" y2="100%">
      <stop offset="0%" style="stop-color:#8b5cf6;stop-opacity:1" />
      <stop offset="100%" style="stop-color:#7c3aed;stop-opacity:1" />
    </linearGradient>
    
    <linearGradient id="gradient-success" x1="0%" y1="0%" x2="100%" y2="100%">
      <stop offset="0%" style="stop-color:#10b981;stop-opacity:1" />
      <stop offset="100%" style="stop-color:#059669;stop-opacity:1" />
    </linearGradient>
    
    <linearGradient id="gradient-warning" x1="0%" y1="0%" x2="100%" y2="100%">
      <stop offset="0%" style="stop-color:#f59e0b;stop-opacity:1" />
      <stop offset="100%" style="stop-color:#d97706;stop-opacity:1" />
    </linearGradient>
    
    <linearGradient id="gradient-chart" x1="0%" y1="0%" x2="100%" y2="100%">
      <stop offset="0%" style="stop-color:#f1f5f9;stop-opacity:1" />
      <stop offset="100%" style="stop-color:#e2e8f0;stop-opacity:1" />
    </linearGradient>
    
    <linearGradient id="gradient-line1" x1="0%" y1="0%" x2="100%" y2="100%">
      <stop offset="0%" style="stop-color:#3b82f6;stop-opacity:1" />
      <stop offset="100%" style="stop-color:#1d4ed8;stop-opacity:1" />
    </linearGradient>
    
    <linearGradient id="gradient-line2" x1="0%" y1="0%" x2="100%" y2="100%">
      <stop offset="0%" style="stop-color:#10b981;stop-opacity:1" />
      <stop offset="100%" style="stop-color:#059669;stop-opacity:1" />
    </linearGradient>
    
    <linearGradient id="gradient-border" x1="0%" y1="0%" x2="100%" y2="100%">
      <stop offset="0%" style="stop-color:#e2e8f0;stop-opacity:1" />
      <stop offset="100%" style="stop-color:#cbd5e1;stop-opacity:1" />
    </linearGradient>
    
    <linearGradient id="gradient-stroke" x1="0%" y1="0%" x2="100%" y2="100%">
      <stop offset="0%" style="stop-color:#e2e8f0;stop-opacity:1" />
      <stop offset="100%" style="stop-color:#cbd5e1;stop-opacity:1" />
    </linearGradient>
    
    <linearGradient id="gradient-accent" x1="0%" y1="0%" x2="100%" y2="100%">
      <stop offset="0%" style="stop-color:#8b5cf6;stop-opacity:1" />
      <stop offset="100%" style="stop-color:#7c3aed;stop-opacity:1" />
    </linearGradient>
  </defs>
</svg>